<svg width="103" height="14" viewBox="0 0 103 14" fill="none" xmlns="http://www.w3.org/2000/svg">
<path d="M2.69 0.291999V13H0.152V0.291999H2.69ZM16.75 13H14.212L8.52398 4.36V13H5.98598V0.291999H8.52398L14.212 9.004V0.291999H16.75V13ZM26.5085 5.53V7.636H18.8585V5.53H26.5085ZM38.3524 0.291999V2.308H33.0064V5.71H37.2904V7.654H33.0064V13H30.4684V0.291999H38.3524ZM43.6041 0.291999V13H41.0661V0.291999H43.6041ZM55.54 0.291999V2.308H52.03V13H49.492V2.308H46V0.291999H55.54ZM68.7012 13H66.1632L60.4752 4.36V13H57.9372V0.291999H60.4752L66.1632 9.004V0.291999H68.7012V13ZM74.5357 2.308V5.602H79.0357V7.546H74.5357V10.966H79.5757V13H71.9977V0.291999H79.5757V2.308H74.5357ZM91.1847 9.526C91.1847 10.174 91.0227 10.774 90.6987 11.326C90.3747 11.866 89.8947 12.304 89.2587 12.64C88.6227 12.964 87.8487 13.126 86.9367 13.126C86.0367 13.126 85.2327 12.976 84.5247 12.676C83.8167 12.364 83.2467 11.92 82.8147 11.344C82.3947 10.768 82.1547 10.096 82.0947 9.328H84.7947C84.8547 9.844 85.0587 10.276 85.4067 10.624C85.7667 10.96 86.2407 11.128 86.8287 11.128C87.3567 11.128 87.7587 10.99 88.0347 10.714C88.3227 10.426 88.4667 10.06 88.4667 9.616C88.4667 9.22 88.3527 8.896 88.1247 8.644C87.8967 8.38 87.6087 8.17 87.2607 8.014C86.9127 7.858 86.4327 7.678 85.8207 7.474C85.0287 7.21 84.3807 6.952 83.8767 6.7C83.3727 6.436 82.9407 6.058 82.5807 5.566C82.2327 5.074 82.0587 4.432 82.0587 3.64C82.0587 2.548 82.4487 1.69 83.2287 1.066C84.0207 0.429999 85.0647 0.112 86.3607 0.112C87.7047 0.112 88.7727 0.435999 89.5647 1.084C90.3687 1.732 90.8247 2.596 90.9327 3.676H88.1967C88.1247 3.22 87.9327 2.848 87.6207 2.56C87.3087 2.26 86.8827 2.11 86.3427 2.11C85.8747 2.11 85.4967 2.236 85.2087 2.488C84.9207 2.728 84.7767 3.082 84.7767 3.55C84.7767 3.922 84.8847 4.234 85.1007 4.486C85.3287 4.726 85.6107 4.924 85.9467 5.08C86.2947 5.236 86.7627 5.41 87.3507 5.602C88.1667 5.89 88.8267 6.16 89.3307 6.412C89.8467 6.664 90.2847 7.042 90.6447 7.546C91.0047 8.05 91.1847 8.71 91.1847 9.526ZM102.784 9.526C102.784 10.174 102.622 10.774 102.298 11.326C101.974 11.866 101.494 12.304 100.858 12.64C100.222 12.964 99.4483 13.126 98.5363 13.126C97.6363 13.126 96.8323 12.976 96.1243 12.676C95.4163 12.364 94.8463 11.92 94.4143 11.344C93.9943 10.768 93.7543 10.096 93.6943 9.328H96.3943C96.4543 9.844 96.6583 10.276 97.0063 10.624C97.3663 10.96 97.8403 11.128 98.4283 11.128C98.9563 11.128 99.3583 10.99 99.6343 10.714C99.9223 10.426 100.066 10.06 100.066 9.616C100.066 9.22 99.9523 8.896 99.7243 8.644C99.4963 8.38 99.2083 8.17 98.8603 8.014C98.5123 7.858 98.0323 7.678 97.4203 7.474C96.6283 7.21 95.9803 6.952 95.4763 6.7C94.9723 6.436 94.5403 6.058 94.1803 5.566C93.8323 5.074 93.6583 4.432 93.6583 3.64C93.6583 2.548 94.0483 1.69 94.8283 1.066C95.6203 0.429999 96.6643 0.112 97.9603 0.112C99.3043 0.112 100.372 0.435999 101.164 1.084C101.968 1.732 102.424 2.596 102.532 3.676H99.7963C99.7243 3.22 99.5323 2.848 99.2203 2.56C98.9083 2.26 98.4823 2.11 97.9423 2.11C97.4743 2.11 97.0963 2.236 96.8083 2.488C96.5203 2.728 96.3763 3.082 96.3763 3.55C96.3763 3.922 96.4843 4.234 96.7003 4.486C96.9283 4.726 97.2103 4.924 97.5463 5.08C97.8943 5.236 98.3623 5.41 98.9503 5.602C99.7663 5.89 100.426 6.16 100.93 6.412C101.446 6.664 101.884 7.042 102.244 7.546C102.604 8.05 102.784 8.71 102.784 9.526Z" fill="white"/>
</svg>
