<svg xmlns="http://www.w3.org/2000/svg" width="256" height="256" viewBox="0 0 100 100"><rect width="100" height="100" rx="20" fill="#ceff1b"></rect><path d="M33.38 13.16L73.22 13.16Q73.82 14.12 74.36 15.74Q74.90 17.36 74.90 19.28L74.90 19.28Q74.90 22.52 73.40 24.20Q71.90 25.88 69.38 25.88L69.38 25.88L40.46 25.88L40.46 44.96L69.14 44.96Q69.74 45.92 70.28 47.48Q70.82 49.04 70.82 50.96L70.82 50.96Q70.82 54.20 69.32 55.82Q67.82 57.44 65.30 57.44L65.30 57.44L40.70 57.44L40.70 85.88Q39.62 86.12 37.64 86.48Q35.66 86.84 33.50 86.84L33.50 86.84Q28.94 86.84 27.02 85.16Q25.10 83.48 25.10 79.52L25.10 79.52L25.10 21.44Q25.10 17.60 27.32 15.38Q29.54 13.16 33.38 13.16L33.38 13.16Z" fill="#000000"></path></svg>